<?xml version="1.0" ?><!DOCTYPE svg  PUBLIC '-//W3C//DTD SVG 1.1//EN'  'http://www.w3.org/Graphics/SVG/1.1/DTD/svg11.dtd'><svg enable-background="new 0 0 128 128" id="Слой_1" version="1.1" viewBox="0 0 128 128" xml:space="preserve" xmlns="http://www.w3.org/2000/svg" xmlns:xlink="http://www.w3.org/1999/xlink"><circle cx="64" cy="64" fill="#F0F1EE" r="62"/><g><g><path d="M115.8,92.7l-24.9,8.6l0,0c0.8-1.2,1.2-2.7,1.1-4.2c-0.3-3.5-3.4-6.1-6.9-6.1H67.2    c-6.9-10-25.7-10-25.7-10h-15v30.4l35.3,11.2c0,0,10.6,3.2,18.4,0c6.5-2.7,32.6-16.6,40.9-21.1c1.6-0.8,3.8-3.3,2.6-6.2l0,0    C122.7,92.9,120.8,91.3,115.8,92.7z" fill="#F4C2A1"/></g><g><path d="M72,125.3L72,125.3c-5.6,0-10.3-1.4-10.5-1.5l-35.4-11.2c-0.5-0.2-0.9-0.6-0.9-1.2V81    c0-0.7,0.6-1.2,1.2-1.2h15c0.8,0,18.8,0.1,26.3,10h17.2c4.2,0,7.8,3.2,8.1,7.2c0.1,0.8,0,1.5-0.1,2.3l22.3-7.7    c1.4-0.4,2.6-0.6,3.7-0.6c2.8,0,4.7,1.3,5.8,3.9c1.5,3.6-1.1,6.7-3.1,7.8c-8,4.3-34.4,18.4-41,21.1    C78.3,124.7,75.4,125.3,72,125.3z M27.8,110.5l34.5,10.9c0,0,4.6,1.4,9.8,1.4h0c3,0,5.6-0.4,7.7-1.3c6.5-2.7,32.8-16.8,40.8-21    c1-0.6,2.9-2.4,2-4.6c-0.7-1.7-1.7-2.4-3.5-2.4c-0.8,0-1.8,0.2-2.9,0.5l-24.8,8.6c-0.2,0.1-0.4,0.1-0.7,0    c-0.4-0.1-0.8-0.4-0.9-0.7s-0.1-0.8,0.1-1.2c0.7-1,1-2.2,0.9-3.4c-0.2-2.8-2.7-4.9-5.6-4.9H67.2c-0.4,0-0.8-0.2-1-0.5    c-6.4-9.4-24.4-9.5-24.6-9.5H27.8V110.5z" fill="#364247"/></g><g enable-background="new    " opacity="0.1"><path d="M85.4,99.4H64.3c-2.8,0-5,2.2-5,5l0,0h26c3.7,0,6.6-3,6.6-6.6c0-0.5-0.1-3.1-0.2-3.6    C91.2,97.1,88.5,99.4,85.4,99.4z" fill="#060808"/></g><g><path d="M85.4,105.6h-26c-0.7,0-1.2-0.6-1.2-1.2s0.6-1.2,1.2-1.2h26c3,0,5.4-2.4,5.4-5.4c0-0.4,0-0.7-0.1-1.1    c-0.1-0.7,0.3-1.3,1-1.5c0.7-0.1,1.3,0.3,1.5,1c0.1,0.6,0.2,1.1,0.2,1.7C93.2,102.1,89.7,105.6,85.4,105.6z" fill="#364247"/></g><g enable-background="new    " opacity="0.1"><path d="M32.5,112.5V81h-6v30.4l6,1.9C32.5,113,32.5,112.8,32.5,112.5z" fill="#060808"/></g><g><path d="M26.5,112.5V80.2c0-2.2-1.7-3.9-3.9-3.9H5c-0.4,0-0.7,0.1-1,0.2c0,0.2,0,0.4,0,0.5    c0,14.5,4.2,28,11.4,39.4h7.2C24.8,116.4,26.5,114.6,26.5,112.5z" fill="#FFFFFF"/></g><g><path d="M22.6,117.8h-7.2c-0.5,0-0.9-0.2-1.2-0.6C6.7,105.1,2.7,91.2,2.7,77c0-0.1,0-0.2,0-0.3l0-0.2    c0-0.5,0.3-0.9,0.7-1.2c0.5-0.3,1-0.4,1.6-0.4h17.6c2.9,0,5.3,2.4,5.3,5.3v32.3C27.9,115.4,25.5,117.8,22.6,117.8z M16.2,115h6.5    c1.4,0,2.5-1.1,2.5-2.5V80.2c0-1.4-1.1-2.5-2.5-2.5H5.4C5.5,90.9,9.2,103.8,16.2,115z" fill="#364247"/></g><g><path d="M123.8,25.1c-1.6-11.4-11.2-20.3-22.7-21.1c-8.4-0.5-16,3.2-20.8,9.2c-0.7,0.8-1.9,0.8-2.6,0    c-4.8-6-12.4-9.7-20.8-9.2c-11.7,0.8-21.4,10-22.7,21.7c-0.3,2.7-0.2,5.3,0.4,7.8c2.6,15,14.7,30,39.4,45.1    c2.6,1.6,5.9,1.6,8.5,0.1c24.1-14.6,37.4-29.1,40.8-43.7C124,31.9,124.3,28.5,123.8,25.1z" fill="#E074A3"/></g><g><path d="M75.3,67.2C75.3,67.2,75.3,67.2,75.3,67.2c-0.7,0-1.2-0.5-1.2-1.1l-3.7-28.5L66,52.8    c-0.2,0.5-0.6,0.9-1.2,0.9c-0.5,0-1-0.4-1.2-0.9l-4.3-14.3l-3.1,6.2c-0.2,0.4-0.6,0.7-1.1,0.7H38c-0.7,0-1.2-0.6-1.2-1.2    s0.6-1.2,1.2-1.2h16.3l4.2-8.3c0.2-0.5,0.7-0.7,1.2-0.7c0.5,0,0.9,0.4,1.1,0.9l4,13.2l4.8-16.9c0.2-0.6,0.7-0.9,1.3-0.9    c0.6,0,1.1,0.5,1.1,1.1L75.7,59l5.2-21.9c0.1-0.6,0.7-1,1.2-1c0.6,0,1.1,0.4,1.2,1l2.3,10.7l2.1-4.3c0.2-0.4,0.6-0.7,1.1-0.7h30.9    c0.7,0,1.2,0.6,1.2,1.2s-0.6,1.2-1.2,1.2H89.6l-3.4,6.8c-0.2,0.5-0.8,0.7-1.3,0.7c-0.5-0.1-1-0.5-1.1-1L82,43.1l-5.5,23.1    C76.4,66.8,75.9,67.2,75.3,67.2z" fill="#FFFFFF"/></g><g><path d="M78.3,81.1C78.3,81.1,78.3,81.1,78.3,81.1c-1.7,0-3.5-0.5-5-1.4C49.2,65,36.1,50,33.3,33.8    c-0.5-2.6-0.7-5.4-0.4-8.1c1.3-12.2,11.6-22,23.9-22.8c8.6-0.6,16.6,3,21.9,9.6c0.2,0.3,0.4,0.3,0.6,0c5.3-6.6,13.3-10.2,21.8-9.6    c12.2,0.8,22.2,10.1,23.9,22.1c0.5,3.5,0.3,7-0.6,10.3c-3.5,15-17.4,30-41.3,44.5C81.6,80.6,80,81.1,78.3,81.1z M58.6,5.3    c-0.5,0-1.1,0-1.6,0.1C45.9,6,36.7,14.9,35.4,25.9c-0.3,2.5-0.2,5,0.3,7.4c2.6,15.3,15.7,30.2,38.8,44.3c1.1,0.7,2.4,1,3.7,1l0,0    c1.2,0,2.5-0.3,3.5-1C105.1,63.5,118.7,49,122,34.7c0.8-3.1,1-6.2,0.6-9.4C121.1,14.4,112,6,101,5.3C93.3,4.8,86.1,8,81.3,14    c-0.6,0.7-1.4,1.1-2.3,1.1c-0.9,0-1.7-0.4-2.3-1.1C72.3,8.4,65.7,5.3,58.6,5.3z" fill="#364247"/></g><path d="M78.2,79.8c1.5,0,2.9-0.4,4.2-1.2c24.1-14.6,37.4-29.1,40.8-43.7c0.8-3.1,1.1-6.4,0.6-9.8   c-1.6-11.4-11.2-20.3-22.7-21.1C110.9,27.8,104.4,52.9,78.2,79.8z" fill="#364247" opacity="0.2"/></g></svg>