<?xml version="1.0" ?><!DOCTYPE svg  PUBLIC '-//W3C//DTD SVG 1.1//EN'  'http://www.w3.org/Graphics/SVG/1.1/DTD/svg11.dtd'><svg enable-background="new 0 0 50 50" id="Layer_1" version="1.1" viewBox="0 0 50 50" xml:space="preserve" xmlns="http://www.w3.org/2000/svg" xmlns:xlink="http://www.w3.org/1999/xlink"><g id="Y_x21_"><path d="M32.3,13.8c-1.1,0.3-2.4,0.3-3.4,0c-0.9,1.7-4.2,7.8-6.3,11.3c-2.2-3.6-4.8-8.3-6.5-11.3   c-1.3,0.3-1.9,0.3-3.2,0c2.6,3.9,6.6,11.2,8.1,13.7V38c0,0,1-0.4,1.6-0.4c0.7,0,1.6,0.4,1.6,0.4V27.5   C26.9,22.8,32.3,13.8,32.3,13.8z" fill="#500095" id="Y_1_"/><path d="M32.3,34.8c-1,0-1.6,0.8-1.6,1.6c0,1,0.7,1.6,1.6,1.6c0.7,0,1.6-0.5,1.6-1.6   C33.9,35.5,33.2,34.8,32.3,34.8z" fill="#500095" id="O_2_"/><path d="M33.9,15.4c-0.8,8.1-2.4,17.7-2.4,17.7s1.2-0.8,2,0c0,0,3.6-14.5,3.6-17.7   C37.1,13.8,34.7,13,33.9,15.4z" fill="#500095" id="I_1_"/></g><path d="M25,1C11.7,1,1,11.7,1,25s10.7,24,24,24s24-10.7,24-24S38.3,1,25,1z M25,44C14.5,44,6,35.5,6,25S14.5,6,25,6  s19,8.5,19,19S35.5,44,25,44z" fill="#500095"/></svg>